<?xml version="1.0" encoding="UTF-8" standalone="no"?>
<!-- Created with Inkscape (http://www.inkscape.org/) -->

<svg
   width="220mm"
   height="220mm"
   viewBox="0 0 220 220"
   version="1.1"
   id="svg1"
   xml:space="preserve"
   sodipodi:docname="Focus Logo Vector.svg"
   inkscape:version="1.3.2 (091e20e, 2023-11-25, custom)"
   inkscape:export-filename="Focus Logo Vector.jpg"
   inkscape:export-xdpi="95.942734"
   inkscape:export-ydpi="95.942734"
   xmlns:inkscape="http://www.inkscape.org/namespaces/inkscape"
   xmlns:sodipodi="http://sodipodi.sourceforge.net/DTD/sodipodi-0.dtd"
   xmlns:xlink="http://www.w3.org/1999/xlink"
   xmlns="http://www.w3.org/2000/svg"
   xmlns:svg="http://www.w3.org/2000/svg"><sodipodi:namedview
     id="namedview1"
     pagecolor="#505050"
     bordercolor="#eeeeee"
     borderopacity="1"
     inkscape:showpageshadow="0"
     inkscape:pageopacity="0"
     inkscape:pagecheckerboard="0"
     inkscape:deskcolor="#505050"
     inkscape:document-units="mm"
     inkscape:zoom="0.70710678"
     inkscape:cx="321.73358"
     inkscape:cy="456.08387"
     inkscape:window-width="1920"
     inkscape:window-height="1017"
     inkscape:window-x="1358"
     inkscape:window-y="-8"
     inkscape:window-maximized="1"
     inkscape:current-layer="layer1"
     showguides="true" /><defs
     id="defs1"><linearGradient
       id="linearGradient329"
       inkscape:collect="always"><stop
         style="stop-color:#1ef20a;stop-opacity:1;"
         offset="0"
         id="stop329" /><stop
         style="stop-color:#14f244;stop-opacity:1;"
         offset="0.5"
         id="stop331" /><stop
         style="stop-color:#0af27e;stop-opacity:1;"
         offset="1"
         id="stop330" /></linearGradient><linearGradient
       id="linearGradient119"
       inkscape:collect="always"><stop
         style="stop-color:#00b1ff;stop-opacity:1;"
         offset="0"
         id="stop120" /><stop
         style="stop-color:#007aff;stop-opacity:1;"
         offset="1"
         id="stop121" /></linearGradient><linearGradient
       id="linearGradient118"
       inkscape:collect="always"><stop
         style="stop-color:#00c5ff;stop-opacity:1;"
         offset="0"
         id="stop116" /><stop
         style="stop-color:#0091ff;stop-opacity:1;"
         offset="0.24115561"
         id="stop118" /><stop
         style="stop-color:#0077ff;stop-opacity:1;"
         offset="0.88061881"
         id="stop119" /></linearGradient><linearGradient
       id="linearGradient114"
       inkscape:collect="always"><stop
         style="stop-color:#00c5ff;stop-opacity:1;"
         offset="0"
         id="stop112" /><stop
         style="stop-color:#0094ff;stop-opacity:1;"
         offset="0.48231122"
         id="stop113" /><stop
         style="stop-color:#0064ff;stop-opacity:1;"
         offset="1"
         id="stop114" /></linearGradient><linearGradient
       id="linearGradient110"
       inkscape:collect="always"><stop
         style="stop-color:#00c5ff;stop-opacity:1;"
         offset="0"
         id="stop108" /><stop
         style="stop-color:#00acff;stop-opacity:1;"
         offset="0.25"
         id="stop111" /><stop
         style="stop-color:#0094ff;stop-opacity:1;"
         offset="0.8408072"
         id="stop109" /><stop
         style="stop-color:#0064ff;stop-opacity:1;"
         offset="1"
         id="stop110" /></linearGradient><linearGradient
       id="linearGradient107"
       inkscape:collect="always"><stop
         style="stop-color:#00c5ff;stop-opacity:1;"
         offset="0"
         id="stop105" /><stop
         style="stop-color:#0094ff;stop-opacity:1;"
         offset="0.5"
         id="stop106" /><stop
         style="stop-color:#0064ff;stop-opacity:1;"
         offset="1"
         id="stop107" /></linearGradient><linearGradient
       id="linearGradient103"
       inkscape:collect="always"><stop
         style="stop-color:#00c5ff;stop-opacity:1;"
         offset="0"
         id="stop102" /><stop
         style="stop-color:#0094ff;stop-opacity:1;"
         offset="0.5"
         id="stop104" /><stop
         style="stop-color:#0064ff;stop-opacity:1;"
         offset="1"
         id="stop103" /></linearGradient><linearGradient
       inkscape:collect="always"
       xlink:href="#linearGradient114"
       id="linearGradient94"
       x1="68.666412"
       y1="151.51456"
       x2="46.96278"
       y2="176.89052"
       gradientUnits="userSpaceOnUse" /><linearGradient
       inkscape:collect="always"
       xlink:href="#linearGradient107"
       id="linearGradient96"
       x1="42.07893"
       y1="180.05292"
       x2="58.660412"
       y2="148.8091"
       gradientUnits="userSpaceOnUse" /><linearGradient
       inkscape:collect="always"
       xlink:href="#linearGradient103"
       id="linearGradient98"
       x1="17.516556"
       y1="204.40543"
       x2="85.128662"
       y2="204.40543"
       gradientUnits="userSpaceOnUse" /><linearGradient
       inkscape:collect="always"
       xlink:href="#linearGradient110"
       id="linearGradient100"
       x1="98.76445"
       y1="270.52518"
       x2="39.098839"
       y2="179.41299"
       gradientUnits="userSpaceOnUse" /><linearGradient
       inkscape:collect="always"
       xlink:href="#linearGradient103"
       id="linearGradient102"
       x1="43.442249"
       y1="250.76498"
       x2="82.78907"
       y2="269.09967"
       gradientUnits="userSpaceOnUse" /><linearGradient
       inkscape:collect="always"
       xlink:href="#linearGradient118"
       id="linearGradient116"
       x1="39.045731"
       y1="172.96883"
       x2="22.184214"
       y2="178.65736"
       gradientUnits="userSpaceOnUse" /><linearGradient
       inkscape:collect="always"
       xlink:href="#linearGradient119"
       id="linearGradient121"
       x1="68.080948"
       y1="66.018196"
       x2="140.04803"
       y2="137.588"
       gradientUnits="userSpaceOnUse"
       gradientTransform="translate(-159.46747,117.12832)" /><linearGradient
       inkscape:collect="always"
       xlink:href="#linearGradient119"
       id="linearGradient123"
       x1="109.08496"
       y1="62.526413"
       x2="150.49907"
       y2="108.96078"
       gradientUnits="userSpaceOnUse"
       gradientTransform="rotate(-39.076306,244.7645,166.12136)" /><linearGradient
       inkscape:collect="always"
       xlink:href="#linearGradient329"
       id="linearGradient330"
       x1="90.5905"
       y1="180.62447"
       x2="142.28056"
       y2="250.9698"
       gradientUnits="userSpaceOnUse" /><linearGradient
       inkscape:collect="always"
       xlink:href="#linearGradient329"
       id="linearGradient331"
       gradientUnits="userSpaceOnUse"
       x1="90.5905"
       y1="180.62447"
       x2="142.28056"
       y2="250.9698" /><linearGradient
       inkscape:collect="always"
       xlink:href="#linearGradient329"
       id="linearGradient332"
       gradientUnits="userSpaceOnUse"
       x1="90.5905"
       y1="180.62447"
       x2="142.28056"
       y2="250.9698" /></defs><g
     inkscape:label="Capa 1"
     inkscape:groupmode="layer"
     id="layer1"><g
       id="g331"
       transform="matrix(1.6371594,0,0,1.6371594,-27.762212,-220.01519)"><use
         x="0"
         y="0"
         xlink:href="#path5"
         id="use153"
         transform="matrix(3.7204881,0,0,3.7204881,-262.38546,-559.96281)" /><circle
         style="fill:url(#linearGradient121);fill-opacity:1;stroke:#000000;stroke-width:0.181253;stroke-opacity:0"
         id="circle44"
         cx="-54.873806"
         cy="220.58507"
         r="39.993954"
         transform="rotate(-39.076306)" /><g
         id="g319"><rect
           style="fill:#011129;fill-opacity:1;stroke:#000000;stroke-width:0.241436;stroke-opacity:0"
           id="rect13"
           width="7.840836"
           height="41.931423"
           x="4.1326451"
           y="184.35037"
           inkscape:transform-center-x="8.5657155"
           inkscape:transform-center-y="-20.098464"
           transform="rotate(-23.076306)" /><rect
           style="fill:#011129;fill-opacity:1;stroke:#000000;stroke-width:0.241436;stroke-opacity:0"
           id="rect14"
           width="7.840836"
           height="41.931423"
           x="222.88234"
           y="-57.948517"
           inkscape:transform-center-x="-20.801652"
           inkscape:transform-center-y="6.6750882"
           transform="rotate(68.711874)" /><rect
           style="fill:#011129;fill-opacity:1;stroke:#000000;stroke-width:0.242721;stroke-opacity:0"
           id="rect15"
           width="7.8395615"
           height="42.38604"
           x="-100.00617"
           y="-249.27019"
           inkscape:transform-center-x="-0.033744517"
           inkscape:transform-center-y="22.083973"
           transform="matrix(-0.99999842,0.00177901,-0.00174049,-0.99999849,0,0)" /></g><path
         d="m 81.195561,158.47146 10.422619,32.36495 c 6.306261,-1.75741 13.33452,0.22806 17.7245,5.63428 0.0412,0.0507 0.0777,0.10393 0.11886,0.15452 l 32.13809,-12.52224 c -1.60532,-3.15484 -3.55672,-6.19264 -5.8782,-9.05164 -13.48439,-16.60657 -35.26146,-22.50175 -54.525869,-16.57987 z"
         style="fill:url(#linearGradient123);stroke:#000000;stroke-width:0.230857;stroke-opacity:0"
         id="path145" /><g
         id="g329"
         style="fill:url(#linearGradient330)"><path
           d="m 144.40359,191.35421 -13.36663,5.20847 c 5.71186,23.25152 -11.85683,35.0275 -30.61725,42.13024 v 16.94832 c 9.59643,-0.9265 19.03491,-4.57437 27.08052,-11.10733 16.21814,-13.169 22.19651,-34.26605 16.90336,-53.1797 z"
           style="fill:url(#linearGradient331);stroke:#000000;stroke-width:0.23034;stroke-opacity:0"
           id="path318" /><path
           d="m 84.469779,178.38239 6.586162,14.58774 0.413928,0.50953 c 5.278182,-2.12974 11.540561,-0.69082 15.315861,3.95842 0.0323,0.0398 0.0608,0.0817 0.093,0.12144 l 15.92733,-5.92649 c -0.85017,-1.54167 -1.95655,-3.26684 -3.10538,-4.68165 -5.99305,-7.38076 -14.7718,-11.16271 -23.592354,-11.06496 -3.953598,0.0439 -7.915127,0.86802 -11.638567,2.49597 z"
           style="fill:url(#linearGradient332);stroke:#000000;stroke-width:0.116761;stroke-opacity:0"
           id="path152"
           sodipodi:nodetypes="cccsccccsc" /></g><path
         d="m 95.479443,168.0161 c -5.452823,0.0605 -10.914821,1.25739 -16.017627,3.61012 l 6.932911,6.30659 c 11.625461,-4.15149 25.093203,-0.80808 33.317343,9.32036 1.09596,1.34971 2.04265,2.77019 2.86598,4.23643 l 7.87032,-3.06596 c -1.11846,-2.02816 -2.42019,-3.99003 -3.93154,-5.85132 -7.88428,-9.70989 -19.43338,-14.68485 -31.037387,-14.55622 z"
         style="fill:#011129;stroke:#000000;stroke-width:0.116761;stroke-opacity:0"
         id="path149" /><path
         style="fill:#ffffff;fill-opacity:1;stroke:#000000;stroke-width:0.119013;stroke-opacity:0"
         d="m 83.328719,173.48554 -3.315898,18.81746 13.46567,6.20807 5.337055,-13.83401 z"
         id="path12"
         sodipodi:nodetypes="ccccc"
         inkscape:transform-center-x="7.0335665"
         inkscape:transform-center-y="-19.832224" /><path
         d="m 128.2561,184.89029 -6.46637,5.27285 c 7.75463,12.61168 5.03664,29.4149 -6.76755,38.99972 -1.34972,1.09597 -2.77046,2.04304 -4.23671,2.86636 l 3.06613,7.87015 c 2.02817,-1.11847 3.98997,-2.42037 5.85126,-3.93174 15.53585,-12.61485 18.77097,-34.48333 8.55324,-51.07734 z"
         style="fill:#011129;stroke:#000000;stroke-width:0.116761;stroke-opacity:0"
         id="path71"
         inkscape:transform-center-x="-21.776825"
         inkscape:transform-center-y="15.495569"
         sodipodi:nodetypes="ccscccc" /><path
         d="m 112.14716,231.21896 c -4.39565,2.70279 -9.35363,4.05491 -14.307137,4.24109 0.01484,0.12148 0.03138,0.24255 0.04289,0.36432 0.144283,1.52622 -0.01565,0.0947 0.186552,1.79213 0.184814,0.96158 0.412852,1.91448 0.675411,2.85771 0.06971,0.25043 0.150188,0.49763 0.219108,0.74828 0.09249,0.33635 0.207392,0.82816 0.290422,1.17563 0.08324,0.37572 0.180616,0.74996 0.227376,1.13275 0.0079,0.0642 0.01092,0.12914 0.01602,0.19379 6.059938,-0.20937 12.026578,-1.85661 17.917258,-6.03529 z"
         style="fill:#011129;stroke:#000000;stroke-width:0.116761;stroke-opacity:0"
         id="path134" /><g
         id="g129"
         transform="matrix(0.99987587,0,0,1.0645001,4.3833005,-20.077933)"><path
           style="fill:url(#linearGradient102);fill-opacity:1;stroke:#000000;stroke-width:0.264999;stroke-opacity:0"
           d="m 85.088722,255.69378 c 0,0 0.52342,5.98456 -0.674701,10.03941 -0.683186,2.31214 -2.36286,3.65149 -3.893979,3.77371 -3.793277,0.30278 -9.306859,0.097 -13.462396,-3.10286 -8.33627,-6.41917 -15.838253,-17.13358 -25.439453,-5.6776 0.29395,-14.02792 9.04982,-13.24112 12.107564,-10.72176 7.928415,6.53244 26.995424,6.80764 31.362965,5.6891 z"
           id="path6"
           sodipodi:nodetypes="cssscsc" /><path
           style="fill:url(#linearGradient98);stroke:#000000;stroke-width:0.264999;stroke-opacity:0"
           d="m 85.08801,255.69423 c -28.069614,9.04835 -43.574627,-12.22166 -55.338787,-29.5008 -8.911411,-13.08905 -19.117771,-37.60197 -5.42558,-47.19312 0,0 -6.719323,14.19913 -0.04653,13.63024 9.561726,-0.81518 12.497104,-14.9152 15.179856,-24.26994 2.147218,-7.48733 4.102684,-15.37586 9.845107,-17.42277 -6.258989,3.91451 -7.557337,23.13569 -9.767517,28.91426 -2.83067,7.40084 -4.37535,10.96699 -4.9799,13.45628 -5.49496,22.62606 17.369502,55.9462 50.533347,62.38585 z"
           id="path7"
           sodipodi:nodetypes="cscsscssc" /><path
           style="fill:url(#linearGradient94);stroke:#000000;stroke-width:0.264999;stroke-opacity:0"
           d="m 62.754866,180.0921 8.528038,-5.67546 c 0,0 -6.103768,-12.46478 -0.724969,-27.19802 -6.274157,1.33342 -9.963653,25.86699 -24.007176,30.45877 z"
           id="path9"
           sodipodi:nodetypes="ccccc" /><path
           style="fill:url(#linearGradient96);stroke:#000000;stroke-width:0.264999;stroke-opacity:0"
           d="m 49.299983,150.93701 c -7.0626,4.34981 -10.507683,30.61404 -10.507683,30.61404 l 8.437743,-3.20511 c 0,0 1.270801,-0.78421 2.557036,-0.9713 16.436945,-2.39083 14.735638,-28.44014 20.768485,-30.1544 -11.229566,-3.68513 -11.702971,20.53929 -20.346631,22.87095 -3.4788,0.93843 -1.53215,-15.89899 -0.90895,-19.15418 z"
           id="path10"
           sodipodi:nodetypes="cccscsc" /><path
           style="fill:url(#linearGradient100);stroke:#000000;stroke-width:0.264999;stroke-opacity:0"
           d="m 85.08801,255.69527 c -48.617187,-9.72344 -51.037857,-42.79989 -51.409927,-52.04603 -0.37186,-9.24072 0.53389,-17.3083 5.20925,-22.15247 3.156928,-3.27091 8.868214,-3.88655 11.719415,-4.26718 2.654115,-0.35431 12.187008,2.82309 12.187008,2.82309 -8.945272,7.41386 -12.780493,13.82104 -14.598973,20.60346 -9.93116,37.04061 21.090777,50.7594 36.893227,55.03913 z"
           id="path8"
           sodipodi:nodetypes="cssscsc" /><path
           style="fill:url(#linearGradient116);fill-opacity:1;stroke:#000000;stroke-width:0.264999;stroke-opacity:0"
           d="m 24.320996,179.00095 c -4.927865,10.3849 -2.717585,13.02497 -1.558562,13.6984 1.916592,1.11361 5.122076,-0.7464 6.870899,-2.1084 7.061003,-5.49919 9.99124,-23.25467 10.218496,-23.59856 -2.675888,7.97292 -6.520602,19.13982 -13.914352,20.53534 -3.128022,0.59039 -1.616481,-8.52678 -1.616481,-8.52678 z"
           id="path114"
           sodipodi:nodetypes="csscsc" /></g><path
         style="fill:#ff0000;fill-opacity:1;stroke:#000000;stroke-width:0.264999;stroke-opacity:0"
         d="m 85.078572,177.12619 0.327403,15.48159"
         id="path150" /><circle
         style="fill:#011129;fill-opacity:1;stroke:#000000;stroke-width:0.0519072;stroke-opacity:0"
         id="path5"
         cx="-54.87381"
         cy="220.58507"
         r="13.315206"
         transform="rotate(-39.076305)" /></g></g></svg>
